<svg width="80" height="75" viewBox="0 0 80 75" fill="none" xmlns="http://www.w3.org/2000/svg">
<path d="M39.3846 16.8033H29.1282V22.541H33.4359L35.8974 27.6639L18.4615 55.5328H27.6923L39.3846 35.6557L48.8205 55.5328H58.2564V48.3607H53.9487L39.3846 16.8033Z" fill="#FF9000"/>
<path fill-rule="evenodd" clip-rule="evenodd" d="M37.5385 75C37.607 75 37.6756 74.9998 37.7441 74.9994L37.7436 75H72.4103C76.602 75 80 71.6054 80 67.418C80 67.0333 79.9714 66.6553 79.9161 66.286L79.9128 66.2651C79.9105 66.2499 79.9081 66.2346 79.9057 66.2194L74.9546 34.4509C73.4013 15.1663 57.2428 0 37.5385 0C16.8065 0 0 16.7893 0 37.5C0 58.2107 16.8065 75 37.5385 75ZM38.1538 67.6229C54.4675 67.6229 67.6923 54.4117 67.6923 38.1148C67.6923 21.8178 54.4675 8.60656 38.1538 8.60656C21.8402 8.60656 8.61538 21.8178 8.61538 38.1148C8.61538 54.4117 21.8402 67.6229 38.1538 67.6229ZM66.5833 60.6493H63.9191V68.2461C63.9191 68.7429 63.8176 69.1307 63.6146 69.4096C63.4167 69.6833 63.1325 69.8202 62.762 69.8202C62.351 69.8202 62.0566 69.7061 61.879 69.478C61.7065 69.2499 61.6202 68.8823 61.6202 68.3754H58.9407C58.9407 69.4907 59.2756 70.3525 59.9455 70.9609C60.6154 71.5692 61.5542 71.8734 62.762 71.8734C63.4826 71.8734 64.1347 71.7213 64.7184 71.4171C65.307 71.113 65.7638 70.6846 66.0885 70.132C66.4184 69.5794 66.5833 68.9508 66.5833 68.2461V60.6493ZM73.5713 67.8659C73.8504 68.0839 73.99 68.3881 73.99 68.7784C73.99 69.1231 73.8606 69.3918 73.6018 69.5845C73.348 69.7721 73.0004 69.8658 72.5589 69.8658C71.8687 69.8658 71.3689 69.7264 71.0593 69.4476C70.7548 69.1637 70.6026 68.7252 70.6026 68.132H67.9231C67.9231 68.8621 68.1058 69.5084 68.4712 70.0712C68.8416 70.6288 69.3897 71.0699 70.1154 71.3943C70.8462 71.7137 71.6607 71.8734 72.5589 71.8734C73.8327 71.8734 74.8349 71.5971 75.5657 71.0445C76.2965 70.4919 76.6619 69.7315 76.6619 68.7632C76.6619 67.5516 76.063 66.601 74.8654 65.9116C74.3731 65.6277 73.7439 65.364 72.9776 65.1207C72.2113 64.8723 71.6759 64.634 71.3714 64.4059C71.0669 64.1727 70.9147 63.9141 70.9147 63.6302C70.9147 63.3058 71.0517 63.0396 71.3257 62.8318C71.6048 62.6189 71.9829 62.5124 72.4599 62.5124C72.9319 62.5124 73.3049 62.6366 73.5789 62.885C73.858 63.1334 73.9976 63.4832 73.9976 63.9344H76.6619C76.6619 63.2602 76.4868 62.662 76.1366 62.1398C75.7865 61.6126 75.2942 61.207 74.6599 60.9231C74.0306 60.6392 73.3176 60.4972 72.5208 60.4972C71.7038 60.4972 70.9679 60.6291 70.3133 60.8927C69.6587 61.1512 69.1512 61.5162 68.7909 61.9877C68.4356 62.4541 68.258 62.994 68.258 63.6074C68.258 64.8393 68.9761 65.8076 70.4123 66.5123C70.8538 66.7303 71.4221 66.9559 72.1174 67.1891C72.8126 67.4223 73.2973 67.6479 73.5713 67.8659Z" fill="#FF9000"/>
</svg>
